<svg viewBox="0 0 24 24" fill="none" xmlns="http://www.w3.org/2000/svg">
<g id="Group 316133390">
<g id="kr">
<path id="Vector" d="M17.6164 16.1454L15.8805 12.6737C15.7898 12.6812 15.6461 12.685 15.4494 12.685H14.0539V16.1454H12.613V7.91992H15.2338C16.497 7.91992 17.4235 8.09767 18.0135 8.45316C18.6034 8.80109 18.8984 9.41374 18.8984 10.2911C18.8984 11.3576 18.3841 12.0648 17.3554 12.4127L19.2388 16.1454H17.6164ZM15.4381 9.07716H14.0539V11.5391H15.4834C16.1415 11.5391 16.6293 11.4521 16.947 11.2782C17.2647 11.0966 17.4235 10.7714 17.4235 10.3025C17.4235 9.81083 17.2571 9.48559 16.9243 9.32676C16.5915 9.16036 16.0961 9.07716 15.4381 9.07716Z" fill="var(--fill-0, white)"/>
<path id="Vector_2" d="M6.63395 7.91982V11.834L10.1284 7.91982H11.8415L8.78959 11.2667L12.1252 16.1453H10.4233L7.83657 12.3105L6.63395 13.6266V16.1453H5.19308V7.91982H6.63395Z" fill="var(--fill-0, white)"/>
</g>
<path id="Ellipse 26 (Stroke)" d="M22.8 12C22.8 6.03532 17.9647 1.2 12 1.2C6.03532 1.2 1.2 6.03532 1.2 12C1.2 17.9647 6.03532 22.8 12 22.8V24C5.37258 24 0 18.6274 0 12C0 5.37258 5.37258 0 12 0C18.6274 0 24 5.37258 24 12C24 18.6274 18.6274 24 12 24V22.8C17.9647 22.8 22.8 17.9647 22.8 12Z" fill="var(--fill-0, white)"/>
</g>
</svg>
