<svg preserveAspectRatio="none" width="100%" height="100%" overflow="visible" style="display: block;" viewBox="0 0 318 86" fill="none" xmlns="http://www.w3.org/2000/svg">
<g id="Union">
<path d="M83.5869 42.7783C83.5869 50.731 86.0369 55.4542 89.918 56.4912C89.918 56.4912 96.6124 58.1819 99.5029 50.2256C100.524 47.4163 100.879 41.1112 100.879 38.4121V21.5654H113.997V86H100.879V62.3076H100.059C93.2398 70.1457 81.9497 66.9596 81.9268 66.9531C77.3221 65.497 71.5019 60.7126 71.3359 49.7627V21.5654H83.5869V42.7783Z" fill="var(--fill-0, white)"/>
<path fill-rule="evenodd" clip-rule="evenodd" d="M143.431 19.5391C157.066 19.5391 168.61 31.8073 168.61 46.9395C168.61 62.0716 157.066 74.3398 143.431 74.3398C129.795 74.3398 118.252 62.0716 118.252 46.9395C118.252 31.8073 129.797 19.5391 143.431 19.5391ZM143.431 27.8457C137.541 27.8457 132.768 36.3943 132.768 46.9395C132.768 57.4846 137.541 66.0332 143.431 66.0332C149.32 66.0332 154.094 57.4846 154.094 46.9395C154.094 36.3943 149.32 27.8457 143.431 27.8457Z" fill="var(--fill-0, white)"/>
<path fill-rule="evenodd" clip-rule="evenodd" d="M288.303 20.2861C292.617 20.2861 296.864 22.4366 300.047 26.9043H301.162V21.1592H312.504V63.9014L318 72.3145L317.998 72.3135H301.16V67.4062H300.045C297.777 71.1892 292.915 73.6484 288.234 73.6484C275.631 73.6484 266.617 61.7933 266.617 47.167C266.617 32.5407 275.31 20.2862 288.303 20.2861ZM288.741 30.1074C283.29 30.1074 278.4 37.7457 278.4 47.1689C278.4 56.5921 283.292 64.2304 288.741 64.2305C294.19 64.2305 298.609 56.5921 298.609 47.1689C298.609 37.7457 294.192 30.1074 288.741 30.1074Z" fill="var(--fill-0, white)"/>
<path d="M65.3105 72.3154H51.6504V35.7979H46.165V31.2939L65.3105 21.0039V72.3154Z" fill="var(--fill-0, white)"/>
<path d="M200.101 20.6895C200.12 20.6896 215.129 20.7816 215.733 38.2041V72.3154H203.276V45.6133C203.276 37.6624 201.008 33.2616 197.233 31.9844C197.213 31.9771 190.657 29.7029 187.45 37.9062C186.362 40.6902 185.983 47.2802 185.983 49.9795V72.3154H172.866V21.0889H185.983V27.9521H187.099C189.7 22.5902 194.597 20.6875 200.099 20.6875L200.101 20.6895Z" fill="var(--fill-0, white)"/>
<path d="M247.49 20.6895C247.49 20.6895 262.518 20.7706 263.123 38.2041V72.3154H250.666V45.6133C250.666 37.6627 248.398 33.2618 244.624 31.9844C244.624 31.9844 238.053 29.6899 234.841 37.9062C233.753 40.6901 233.374 47.2802 233.374 49.9795V72.3154H220.257V21.0889H233.374V27.9521H234.489C237.091 22.5901 241.988 20.6875 247.489 20.6875L247.49 20.6895Z" fill="var(--fill-0, white)"/>
<path d="M14.0449 7.16113C17.1447 5.26069 21.787 3.76106 26.7559 4.13672C33.2981 4.63182 38.7047 7.37684 41.624 11.998C53.1621 30.2664 28.0332 49.9854 28.0332 49.9854L17.9062 41.0244C31.312 30.4939 32.6128 22.0319 30.0869 17.4395C28.6399 14.8055 25.5511 13.1146 22.8682 12.7441C18.4532 12.1335 15.0592 13.5731 14.0469 14.8467V72.3145H0V7.56055L14.0449 0V7.16113Z" fill="var(--fill-0, white)"/>
<path d="M57.4961 2.59766C61.8896 2.59766 65.4512 6.16434 65.4512 10.5635C65.451 14.9625 61.8896 18.5283 57.4961 18.5283C53.1027 18.5282 49.5411 14.9625 49.541 10.5635C49.541 6.16439 53.1026 2.59774 57.4961 2.59766Z" fill="var(--fill-0, white)"/>
</g>
</svg>
