<svg viewBox="0 0 48 50" fill="none" xmlns="http://www.w3.org/2000/svg">
<g id="piyonna_symbol" clip-path="url(#clip0_261_16973)">
<g id="Group">
<path id="Vector" d="M40.0313 25.3926V24.6075C44.8631 22.9014 48.0001 17.9538 48.0001 12.4996C48.0001 5.597 42.6269 5.3297e-05 36.0001 5.3297e-05C30.7606 5.3297e-05 26.0024 3.25899 24.3661 8.3006H23.6341C21.9979 3.25725 17.238 5.3297e-05 12.0001 5.3297e-05C5.37338 5.3297e-05 0.000126716 5.597 0.000126716 12.4996C0.000126716 17.9521 3.13717 22.8997 7.96893 24.6075V25.3926C3.13717 27.0987 0.000126716 32.0463 0.000126716 37.5005C0.000126716 44.4031 5.37338 50.0001 12.0001 50.0001C17.2397 50.0001 21.9979 46.7411 23.6341 41.6995H24.3661C26.0024 46.7429 30.7622 50.0001 36.0001 50.0001C42.6269 50.0001 48.0001 44.4031 48.0001 37.5005C48.0001 32.048 44.8631 27.1004 40.0313 25.3926ZM37.9037 39.4973C37.0581 40.3782 32.2597 44.5929 26.9416 39.0307C25.7634 37.7999 24.9678 36.4194 24.4363 35.0197H23.5622C23.0324 36.4194 22.2352 37.7982 21.0569 39.0307C15.7388 44.5929 10.9405 40.3782 10.0948 39.4973C9.15054 38.5137 5.20458 33.6183 10.5427 28.0788C11.721 26.8567 13.0397 26.028 14.3784 25.4762V24.5535C13.0397 24.0017 11.721 23.173 10.5427 21.9509C5.2029 16.4114 9.24915 11.4133 10.0948 10.5324C11.0391 9.54881 15.7388 5.43684 21.0569 10.999C22.2269 12.2211 23.0207 13.5912 23.5505 14.9804H24.4464C24.9762 13.5912 25.7717 12.2228 26.94 10.999C32.2581 5.43684 36.9561 9.54707 37.9021 10.5324C38.7478 11.4133 42.7923 16.4114 37.4542 21.9509C36.2759 23.173 34.9572 24.0017 33.6185 24.5535V25.4762C34.9572 26.028 36.2759 26.8567 37.4542 28.0788C42.794 33.6183 38.848 38.5119 37.9021 39.4973H37.9037Z" fill="var(--fill-0, white)"/>
<path id="Vector_2" d="M23.9998 32.6079L23.9954 32.6033C23.9954 32.6033 23.9954 32.611 23.9954 32.6156H24.0057C24.0057 32.6156 24.0057 32.6079 24.0057 32.6033L24.0013 32.6079H23.9998Z" fill="var(--fill-0, white)"/>
<path id="Vector_3" d="M23.9946 17.3952L23.999 17.3906L24.0034 17.3952C24.0034 17.3952 24.0034 17.3875 24.0034 17.3829H23.9931C23.9931 17.3829 23.9931 17.3906 23.9931 17.3952H23.9946Z" fill="var(--fill-0, white)"/>
</g>
<path id="Vector_4" d="M28.0261 29.1945C30.249 26.8774 30.249 23.1223 28.0261 20.8069C25.8016 18.4898 22.1966 18.4898 19.9738 20.8069C17.7509 23.1241 17.7509 26.8791 19.9738 29.1945C22.1983 31.5099 25.8033 31.5099 28.0261 29.1945Z" fill="var(--fill-0, white)"/>
</g>
<defs>
<clipPath id="clip0_261_16973">
<rect width="48" height="50" fill="white"/>
</clipPath>
</defs>
</svg>
