<svg viewBox="0 0 25 26" fill="none" xmlns="http://www.w3.org/2000/svg">
<g id="piyonna_symbol" clip-path="url(#clip0_261_14716)">
<g id="Group">
<path id="Vector" d="M20.8497 13.2042V12.7959C23.3662 11.9088 25.0001 9.33601 25.0001 6.49983C25.0001 2.91047 22.2016 5.3297e-05 18.7501 5.3297e-05C16.0212 5.3297e-05 13.543 1.6947 12.6908 4.31634H12.3095C11.4573 1.6938 8.97819 5.3297e-05 6.25013 5.3297e-05C2.7987 5.3297e-05 0.000126716 2.91047 0.000126716 6.49983C0.000126716 9.3351 1.634 11.9079 4.15054 12.7959V13.2042C1.634 14.0913 0.000126716 16.6641 0.000126716 19.5003C0.000126716 23.0896 2.7987 26.0001 6.25013 26.0001C8.97906 26.0001 11.4573 24.3054 12.3095 21.6838H12.6908C13.543 24.3063 16.0221 26.0001 18.7501 26.0001C22.2016 26.0001 25.0001 23.0896 25.0001 19.5003C25.0001 16.665 23.3662 14.0922 20.8497 13.2042ZM19.7416 20.5386C19.3011 20.9967 16.802 23.1883 14.0322 20.296C13.4185 19.656 13.0041 18.9381 12.7273 18.2103H12.2721C11.9961 18.9381 11.5809 19.6551 10.9672 20.296C8.19738 23.1883 5.69824 20.9967 5.25778 20.5386C4.76597 20.0271 2.71078 17.4815 5.49107 14.601C6.10475 13.9655 6.79156 13.5346 7.48881 13.2476V12.7679C6.79156 12.4809 6.10475 12.05 5.49107 11.4145C2.70991 8.53395 4.81732 5.93494 5.25778 5.47688C5.7496 4.96541 8.19738 2.82718 10.9672 5.71949C11.5766 6.35499 11.99 7.06743 12.266 7.78982H12.7325C13.0085 7.06743 13.4228 6.35589 14.0313 5.71949C16.8011 2.82718 19.248 4.9645 19.7407 5.47688C20.1812 5.93494 22.2877 8.53395 19.5074 11.4145C18.8938 12.05 18.2069 12.4809 17.5097 12.7679V13.2476C18.2069 13.5346 18.8938 13.9655 19.5074 14.601C22.2886 17.4815 20.2334 20.0262 19.7407 20.5386H19.7416Z" fill="var(--fill-0, #8E1F0B)"/>
<path id="Vector_2" d="M12.4994 16.9562L12.4971 16.9538C12.4971 16.9538 12.4971 16.9578 12.4971 16.9601H12.5025C12.5025 16.9601 12.5025 16.9562 12.5025 16.9538L12.5002 16.9562H12.4994Z" fill="var(--fill-0, #8E1F0B)"/>
<path id="Vector_3" d="M12.497 9.04559L12.4993 9.04319L12.5016 9.04559C12.5016 9.04559 12.5016 9.0416 12.5016 9.0392H12.4962C12.4962 9.0392 12.4962 9.04319 12.4962 9.04559H12.497Z" fill="var(--fill-0, #8E1F0B)"/>
</g>
<path id="Vector_4" d="M14.5974 15.1812C15.7551 13.9763 15.7551 12.0237 14.5974 10.8197C13.4388 9.61479 11.5612 9.61479 10.4035 10.8197C9.24572 12.0246 9.24572 13.9772 10.4035 15.1812C11.5621 16.3852 13.4397 16.3852 14.5974 15.1812Z" fill="var(--fill-0, #8E1F0B)"/>
</g>
<defs>
<clipPath id="clip0_261_14716">
<rect width="25" height="26" fill="white"/>
</clipPath>
</defs>
</svg>
