<svg preserveAspectRatio="none" width="100%" height="100%" overflow="visible" style="display: block;" viewBox="0 0 179 179" fill="none" xmlns="http://www.w3.org/2000/svg">
<g id="piyonna_symbol" style="mix-blend-mode:soft-light" clip-path="url(#clip0_95_253)">
<g id="Union">
<path d="M74.4844 74.4881C82.7737 66.1928 96.2181 66.1928 104.514 74.4881C112.802 82.777 112.802 96.2198 104.514 104.515C96.2243 112.804 82.78 112.804 74.4844 104.515C66.1955 96.226 66.1954 82.7832 74.4844 74.4881Z" fill="url(#paint0_linear_95_253)" fill-opacity="0.3"/>
<path fill-rule="evenodd" clip-rule="evenodd" d="M134.25 0C158.962 6.53323e-05 179 20.0375 179 44.7487C179 64.2745 167.301 81.9865 149.283 88.0943V90.9057C167.301 97.0197 179 114.732 179 134.251C179 158.962 158.962 179 134.25 179C114.717 179 96.9667 167.339 90.865 149.284H88.135C82.0332 167.333 64.289 179 44.75 179C20.038 179 0 158.962 0 134.251C5.33108e-05 114.725 11.6995 97.0133 29.7178 90.9057V88.0943C11.6995 81.9804 0 64.2684 0 44.7487C5.54275e-06 20.0376 20.038 0.000154652 44.75 0C64.2827 0 82.0332 11.661 88.135 29.7158H90.865C96.9668 11.6672 114.711 0 134.25 0ZM141.342 37.7066C137.814 34.1791 120.295 19.4645 100.463 39.3768C96.1065 43.758 93.1403 48.6567 91.1646 53.6299H87.8237C85.848 48.6565 82.8872 43.7519 78.5245 39.3768C58.6925 19.4645 41.1665 34.1853 37.6451 37.7066C34.491 40.8608 19.4032 58.7529 39.3156 78.5838C43.7096 82.9589 48.627 85.9263 53.6193 87.9019V91.2045C48.6271 93.1801 43.7095 96.1467 39.3156 100.522C19.4089 120.353 34.1237 137.878 37.6451 141.4C40.7988 144.553 58.6925 159.642 78.5245 139.73C82.9184 135.317 85.891 130.381 87.8667 125.37H91.1264C93.1084 130.381 96.0757 135.323 100.47 139.73C120.302 159.642 138.195 144.553 141.349 141.4H141.342C144.87 137.872 159.586 120.353 139.673 100.522C135.279 96.1466 130.361 93.1801 125.369 91.2045V87.9019C130.361 85.9263 135.279 82.9588 139.673 78.5838C159.579 58.7526 144.496 40.8602 141.342 37.7066Z" fill="url(#paint1_linear_95_253)" fill-opacity="0.3"/>
</g>
</g>
<defs>
<linearGradient id="paint0_linear_95_253" x1="89.4994" y1="68.2667" x2="89.4994" y2="110.732" gradientUnits="userSpaceOnUse">
<stop stop-color="white" stop-opacity="0.6"/>
<stop offset="1" stop-color="white"/>
</linearGradient>
<linearGradient id="paint1_linear_95_253" x1="89.4994" y1="68.2667" x2="89.4994" y2="110.732" gradientUnits="userSpaceOnUse">
<stop stop-color="white" stop-opacity="0.6"/>
<stop offset="1" stop-color="white"/>
</linearGradient>
<clipPath id="clip0_95_253">
<rect width="179" height="179" fill="white"/>
</clipPath>
</defs>
</svg>
